<svg xmlns="http://www.w3.org/2000/svg" width="400" height="400" viewBox="0 0 20 20" shape-rendering="crispEdges"><rect width="20" height="20" fill="#020617"/><g fill="#2dd4bf"><rect x="3" y="3" width="7" height="1"/><rect x="11" y="3" width="6" height="1"/><rect x="6" y="4" width="1" height="1"/><rect x="11" y="4" width="1" height="1"/><rect x="6" y="5" width="1" height="1"/><rect x="11" y="5" width="1" height="1"/><rect x="6" y="6" width="1" height="1"/><rect x="11" y="6" width="1" height="1"/><rect x="14" y="6" width="3" height="1"/><rect x="6" y="7" width="1" height="1"/><rect x="11" y="7" width="1" height="1"/><rect x="16" y="7" width="1" height="1"/><rect x="6" y="8" width="1" height="1"/><rect x="11" y="8" width="6" height="1"/><rect x="3" y="11" width="4" height="1"/><rect x="8" y="11" width="3" height="1"/><rect x="12" y="11" width="5" height="1"/><rect x="3" y="12" width="1" height="1"/><rect x="8" y="12" width="1" height="1"/><rect x="14" y="12" width="1" height="1"/><rect x="3" y="13" width="1" height="1"/><rect x="8" y="13" width="2" height="1"/><rect x="14" y="13" width="1" height="1"/><rect x="3" y="14" width="1" height="1"/><rect x="5" y="14" width="2" height="1"/><rect x="8" y="14" width="1" height="1"/><rect x="14" y="14" width="1" height="1"/><rect x="3" y="15" width="1" height="1"/><rect x="6" y="15" width="1" height="1"/><rect x="8" y="15" width="1" height="1"/><rect x="14" y="15" width="1" height="1"/><rect x="3" y="16" width="4" height="1"/><rect x="8" y="16" width="3" height="1"/><rect x="14" y="16" width="1" height="1"/></g></svg>
